<mxfile host="app.diagrams.net" modified="2023-12-19T18:01:37.823Z" agent="Mozilla/5.0 (Windows NT 10.0; Win64; x64) AppleWebKit/537.36 (KHTML, like Gecko) Chrome/120.0.0.0 Safari/537.36" version="22.1.11" etag="YPDmlq2Qtpy646T5QO_x" type="github">
  <diagram name="第 1 页" id="3s1gKKwR2BvznjnYBD5C">
    <mxGraphModel>
      <root>
        <mxCell id="0" />
        <mxCell id="1" parent="0" />
      </root>
    </mxGraphModel>
  </diagram>
</mxfile>
